<svg width="256" height="74" viewBox="0 0 256 74" fill="none" xmlns="http://www.w3.org/2000/svg">
<path d="M51.3999 67.28V72.49H54.9899L51.3999 67.28V67.28Z" fill="black"/>
<path d="M51.3999 67.28V72.49H54.9899L51.3999 67.28V67.28Z" fill="black"/>
<path d="M109.45 32.95C109.37 32.96 109.3 32.96 109.23 32.98C109.38 32.96 109.54 32.94 109.69 32.93C109.61 32.93 109.53 32.94 109.45 32.95V32.95ZM108.49 61.47C108.23 61.44 107.98 61.39 107.73 61.32C107.47 61.27 107.22 61.21 106.97 61.13C106.46 60.99 105.96 60.82 105.47 60.61C105.36 60.57 105.25 60.52 105.14 60.48C105.54 60.67 105.94 60.84 106.35 60.98C106.54 61.04 106.72 61.1 106.91 61.15C107.1 61.21 107.29 61.26 107.48 61.3C107.67 61.35 107.86 61.39 108.06 61.42C108.45 61.5 108.85 61.55 109.26 61.59C109 61.56 108.75 61.52 108.49 61.47V61.47ZM99.5 55.42C99.36 55.19 99.24 54.95 99.12 54.71C99.03 54.52 98.94 54.32 98.86 54.11C98.81 54.01 98.77 53.9 98.72 53.79C98.99 54.58 99.34 55.31 99.81 55.94C99.7 55.77 99.59 55.6 99.5 55.42V55.42ZM106.81 33.45C106.69 33.48 106.58 33.52 106.46 33.56C106.41 33.57 106.37 33.58 106.32 33.6C106.24 33.62 106.16 33.65 106.09 33.67C105.88 33.74 105.67 33.82 105.47 33.9C105.27 33.99 105.07 34.07 104.88 34.16C104.69 34.25 104.51 34.35 104.33 34.45C103.79 34.74 103.3 35.07 102.85 35.42C102.88 35.44 102.9 35.46 102.93 35.49C103.93 34.69 105.06 34.07 106.28 33.64C106.54 33.55 106.79 33.47 107.05 33.4C107.09 33.38 107.13 33.37 107.17 33.36L106.81 33.45V33.45ZM108.98 33L108.74 33.03C108.53 33.06 108.31 33.1 108.1 33.14C108.01 33.16 107.92 33.17 107.83 33.19C107.82 33.19 107.81 33.19 107.8 33.2C107.72 33.22 107.64 33.24 107.56 33.27C107.95 33.17 108.34 33.1 108.75 33.04C108.86 33.02 108.98 33 109.11 32.99C109.06 32.99 109.02 32.99 108.98 33V33Z" fill="black"/>
<path d="M99.81 55.94C99.34 55.31 98.99 54.58 98.72 53.79C98.77 53.9 98.81 54.01 98.86 54.11C98.94 54.32 99.03 54.52 99.12 54.71C99.24 54.95 99.36 55.19 99.5 55.42C99.59 55.6 99.7 55.77 99.81 55.94V55.94Z" fill="black"/>
<path d="M107.8 33.2C107.72 33.22 107.64 33.24 107.56 33.27H107.55C107.55 33.27 107.48 33.28 107.44 33.29C107.35 33.31 107.26 33.33 107.17 33.36C107.13 33.37 107.09 33.38 107.05 33.4C106.79 33.47 106.54 33.55 106.28 33.64C105.06 34.07 103.93 34.69 102.93 35.49C102.9 35.46 102.88 35.44 102.85 35.42C103.3 35.07 103.79 34.74 104.33 34.45C104.51 34.35 104.69 34.25 104.88 34.16C105.07 34.07 105.27 33.99 105.47 33.9C105.6 33.84 105.74 33.79 105.88 33.74C105.95 33.71 106.02 33.68 106.09 33.67C106.16 33.65 106.24 33.62 106.32 33.6C106.37 33.58 106.41 33.57 106.46 33.56C106.58 33.52 106.69 33.48 106.81 33.45C107.06 33.37 107.31 33.3 107.57 33.24C107.64 33.22 107.72 33.21 107.8 33.2V33.2Z" fill="black"/>
<path d="M109.69 32.93C109.54 32.94 109.38 32.96 109.23 32.98C109.3 32.96 109.37 32.96 109.45 32.95C109.53 32.94 109.61 32.93 109.69 32.93V32.93Z" fill="black"/>
<path d="M110.03 61.65C109.84 61.64 109.65 61.63 109.47 61.61C109.4 61.61 109.33 61.6 109.26 61.59C108.85 61.55 108.45 61.5 108.06 61.42C107.86 61.39 107.67 61.35 107.48 61.3C107.29 61.26 107.1 61.21 106.91 61.15C106.72 61.1 106.54 61.04 106.35 60.98C105.94 60.84 105.54 60.67 105.14 60.48C105 60.42 104.87 60.35 104.74 60.28C104.99 60.4 105.22 60.51 105.47 60.61C105.96 60.81 106.46 60.98 106.97 61.13C107.22 61.2 107.47 61.26 107.73 61.32C107.98 61.37 108.24 61.42 108.49 61.47C109.01 61.55 109.52 61.61 110.03 61.65V61.65Z" fill="black"/>
<path d="M51.4 72.49H54.99V72.51H39.6L19.2 43.01H13.4V71.91C13.4 72.24 13.13 72.51 12.8 72.51H0.6C0.27 72.51 0 72.24 0 71.91V3.1C0 2.77 0.27 2.5 0.6 2.5H12.8C13.13 2.5 13.4 2.77 13.4 3.1V30H19L36.7 2.5H52L30.2 36.51L51.4 67.28V72.49Z" fill="black"/>
<path d="M255.1 68.81C255.1 68.81 250.9 73.01 243.2 73.01C233.6 73.01 225.3 66.51 225.3 56.41V33.2H209.2V72.51H196.4V23.35H209.2V23.41H220.3C223.7 23.41 226 21.1 226 17.5V8.1C226 7.77 226.27 7.5 226.6 7.5H237.5C237.83 7.5 238.1 7.77 238.1 8.1V22.5H250.1C250.43 22.5 250.7 22.77 250.7 23.1V32.6C250.7 32.94 250.43 33.2 250.1 33.2H238.1V55.61C238.1 59.01 240.9 61.61 244.5 61.61C247.5 61.61 250.3 59.91 250.3 59.91L255.1 68.81Z" fill="black"/>
<path d="M168.13 22.01C168.08 22.01 168.04 22 167.99 22C167.86 21.99 167.74 21.99 167.61 21.99C167.28 21.99 166.95 22 166.63 22.02C166.51 22.02 166.39 22.03 166.27 22.04C163.42 22.21 160.8 22.96 158.53 24.28C158.5 24.28 158.48 24.31 158.45 24.32C157.18 24.95 155.94 25.7 154.71 26.56C154.71 26.56 154.7 26.56 154.7 26.57V2.1C154.7 1.77 154.43 1.5 154.1 1.5H142.8C142.47 1.5 142.2 1.77 142.2 2.1V38.17C139.65 40.97 137.13 43.86 134.61 46.64C133.13 48.25 131.65 49.82 130.16 51.29C127.78 53.66 125.37 55.78 122.89 57.49C119.87 59.58 116.75 61.03 113.48 61.51C112.99 61.59 112.5 61.64 112.01 61.66C111.71 61.68 111.41 61.69 111.11 61.69C110.74 61.7 110.38 61.69 110.03 61.66C109.84 61.65 109.66 61.63 109.47 61.61C109.4 61.61 109.33 61.6 109.26 61.59C108.85 61.55 108.45 61.5 108.06 61.42C107.86 61.39 107.67 61.35 107.48 61.3C107.29 61.26 107.1 61.21 106.91 61.15C106.72 61.11 106.53 61.05 106.35 60.98C105.73 60.78 105.13 60.52 104.55 60.19C104.49 60.17 104.43 60.13 104.37 60.1C104.33 60.1 104.29 60.06 104.25 60.04C104.17 60 104.1 59.96 104.02 59.92C103.91 59.87 103.8 59.8 103.7 59.74C102.27 58.88 100.98 57.72 99.9699 56.2C99.9499 56.18 99.9399 56.15 99.9199 56.13C99.8999 56.08 99.8699 56.05 99.8499 56.01C99.8299 55.99 99.8199 55.97 99.8099 55.94C99.3399 55.31 98.9899 54.58 98.7199 53.79C98.6699 53.68 98.6399 53.57 98.5999 53.46C98.5899 53.43 98.5699 53.39 98.5599 53.35C98.5499 53.35 98.5499 53.33 98.5399 53.31C98.3199 52.68 98.1399 52.01 97.9999 51.3C97.8499 50.31 97.7899 49.29 97.7899 48.3C97.7899 46.7 97.9499 45.15 98.1699 43.87C103.55 47.49 109.13 51.29 121.31 51.29C131.11 51.3 135.27 42.64 132.15 35.41C132.12 35.34 132.09 35.27 132.05 35.21C127.83 26.13 119.03 22 110.31 22C104.03 22 98.0799 24.18 93.5699 28.14C90.3699 26.28 86.3399 24.99 80.3099 24.99C72.1099 24.99 67.1999 28.79 64.9999 30.99H63.3999L61.5999 25.49H51.3999V67.28L54.9899 72.49H64.0999C64.4299 72.49 64.6999 72.22 64.6999 71.89V50.19C64.6999 40.99 71.9899 37.39 78.9999 37.39H79.1699C82.1399 37.4 84.6399 37.72 86.8199 38.27C85.8999 40.94 85.3999 43.89 85.3999 47.1C85.3999 62.7 97.1999 73 110.71 73C111.13 73 111.54 72.99 111.95 72.97C112.32 72.95 112.68 72.92 113.05 72.89C116.3 72.6 119.43 71.69 122.26 70.2C122.37 70.14 122.47 70.09 122.58 70.03C130.06 66.27 136.37 59.43 142.2 52.73V72.51H152L153.4 67.71H154.9C158 71.11 162.2 73.01 167.6 73.01C180.3 73.01 190.9 62.61 190.9 47.51C190.9 32.41 180.6 22.29 168.13 22.01V22.01ZM104.33 34.45C104.51 34.34 104.69 34.24 104.88 34.16C105.07 34.06 105.27 33.97 105.47 33.9C105.6 33.84 105.74 33.79 105.88 33.74C105.95 33.71 106.02 33.68 106.09 33.67C106.55 33.49 107.04 33.35 107.57 33.24C107.64 33.22 107.72 33.21 107.8 33.2C107.81 33.19 107.82 33.19 107.83 33.19C107.92 33.17 108.01 33.16 108.1 33.14C108.31 33.1 108.53 33.06 108.74 33.03L108.98 33C108.98 33 109.06 32.99 109.11 32.99C109.15 32.98 109.19 32.98 109.23 32.98C109.3 32.96 109.37 32.96 109.45 32.95C109.53 32.94 109.61 32.93 109.69 32.93C109.54 32.94 109.38 32.96 109.23 32.98C109.38 32.96 109.53 32.95 109.69 32.94C110.03 32.91 110.37 32.9 110.71 32.9C115.28 32.9 119.09 34.9 120.86 39.73C121.12 40.45 120.56 41.19 119.8 41.16C111.42 40.9 106.73 38.42 102.93 35.49C102.9 35.46 102.88 35.44 102.85 35.42C103.3 35.07 103.79 34.74 104.33 34.45V34.45ZM165.7 60.71C159.2 60.71 154.7 55.81 154.7 47.51C154.7 41.03 157.45 36.62 161.75 35C161.85 34.96 161.96 34.92 162.06 34.89C162.26 34.82 162.47 34.75 162.69 34.7C162.91 34.63 163.13 34.58 163.36 34.54C163.55 34.5 163.74 34.46 163.93 34.44C164.5 34.35 165.09 34.31 165.7 34.31C171.8 34.31 177.9 38.71 177.9 47.51C177.9 56.31 171.8 60.71 165.7 60.71Z" fill="black"/>
<path d="M194.2 8.5C194.2 3.7 198.1 0 202.8 0C207.5 0 211.2 3.7 211.2 8.5C211.2 13 207.4 16.9 202.8 16.9C198.2 16.9 194.2 13 194.2 8.5V8.5Z" fill="black"/>
</svg>
